<svg width="1411" height="205" viewBox="0 0 1411 205" fill="none" xmlns="http://www.w3.org/2000/svg">
<path d="M151.648 5.89483L160.635 40.1562L158.95 40.9987C146.312 26.6763 128.62 8.14148 97.4478 8.14148H91.2695V183.942C91.2695 193.771 93.5162 197.983 97.7286 200.511C97.7286 201.072 97.7286 202.477 97.7286 202.477H62.9056C62.9056 202.477 62.9056 201.072 62.9056 200.511C67.118 197.983 69.3647 193.771 69.3647 183.942V8.14148H63.1864C32.0142 8.14148 14.3218 26.6763 1.68442 40.9987L-0.000566619 40.1562L8.98603 5.89483H151.648ZM308.437 183.942C309.561 194.052 312.088 197.983 316.301 200.511C316.301 201.072 316.301 202.477 316.301 202.477H281.759C281.759 202.477 281.759 201.072 281.759 200.511C285.971 197.983 287.375 193.209 286.533 183.942C285.409 174.674 281.478 127.214 280.074 112.611C277.827 91.5483 267.436 67.6777 243.285 72.4518C211.832 78.6301 206.215 137.324 206.215 160.914V183.942C206.215 193.771 208.181 197.983 212.393 200.511C212.393 201.072 212.393 202.477 212.393 202.477H177.57C177.57 202.477 177.57 201.072 177.57 200.511C182.063 197.983 184.029 193.771 184.029 183.942V21.6214C184.029 11.7923 183.187 8.98398 177.57 8.14148C177.57 7.57983 177.57 5.89483 177.57 5.89483L203.968 -0.00261035H206.215V137.043C209.585 105.59 219.414 67.3968 255.922 67.3968C278.669 67.3968 298.328 83.1234 301.698 116.823C304.787 144.064 307.314 173.551 308.437 183.942ZM438.728 111.768C454.735 115.981 469.338 132.269 467.092 157.824C465.407 177.763 447.714 204.162 407.836 204.162C369.082 204.162 331.731 185.065 330.608 138.728C329.204 90.1442 373.294 69.0818 404.185 67.3968C428.056 66.2735 460.913 77.7876 464.845 111.768C462.318 111.768 444.906 111.768 444.906 111.768H438.728ZM391.548 70.7668C372.452 74.4176 360.095 90.425 355.04 109.521H444.625C440.974 85.0892 419.07 65.431 391.548 70.7668ZM464.564 158.386C467.934 129.18 448.557 111.768 427.214 111.768H354.478C350.828 126.652 351.67 143.221 356.444 156.701C366.835 186.188 387.897 199.107 416.542 197.983C440.694 196.86 461.756 180.291 464.564 158.386ZM578.193 97.7266C611.331 100.816 646.997 115.419 646.997 149.68C646.997 189.278 600.379 202.477 564.152 202.477H486.923C486.923 202.477 486.923 201.072 486.923 200.511C491.136 197.983 493.101 193.771 493.101 183.942V24.7105C493.101 14.8814 491.136 10.669 486.923 8.14148C486.923 7.57983 486.923 5.89483 486.923 5.89483H552.076C588.303 5.89483 634.921 13.1964 634.921 52.7936C634.921 82.8425 607.4 94.0758 578.193 97.7266ZM515.287 8.14148V96.8841H552.076C598.132 96.8841 612.735 77.5068 612.735 52.7936C612.735 27.7997 598.132 8.14148 552.076 8.14148H515.287ZM564.152 200.511C610.208 200.511 625.092 174.674 625.092 149.68C625.092 124.967 610.208 99.1307 564.152 99.1307H515.287V200.511H564.152ZM735.641 67.3968C750.806 67.3968 759.511 72.7326 769.06 83.9659L751.929 108.117L749.963 106.994C749.401 90.9866 741.538 70.2051 726.373 72.4518C698.852 76.6643 695.201 149.119 695.201 172.989V183.942C695.201 193.771 697.167 197.983 701.379 200.511C701.379 201.072 701.379 202.477 701.379 202.477H666.556C666.556 202.477 666.556 201.072 666.556 200.511C671.05 197.983 673.015 193.771 673.015 183.942V89.0208C673.015 79.1917 672.173 76.3834 666.556 75.5409C666.556 74.9793 666.556 73.5751 666.556 73.5751L692.954 67.3968H695.201V142.66C698.009 108.679 705.873 67.3968 735.641 67.3968ZM885.874 200.511C885.874 201.072 885.874 202.477 885.874 202.477H857.51V163.16C850.209 187.873 834.763 204.162 807.803 204.162C784.775 204.162 762.309 193.209 758.658 172.989C753.884 144.345 771.014 127.495 792.638 118.508C785.337 102.22 794.043 67.3968 831.674 67.3968C854.983 67.3968 879.696 79.7534 879.696 114.296V183.942C879.696 193.771 881.662 197.983 885.874 200.511ZM829.146 70.2051C803.872 70.2051 787.022 94.6374 795.447 117.385C810.612 111.768 827.461 109.802 840.661 109.802C847.12 109.802 852.736 110.926 857.51 112.33V110.364C857.51 89.0208 849.085 70.2051 829.146 70.2051ZM814.543 200.511C838.976 199.107 851.894 178.325 857.51 158.105V114.857C856.106 114.296 849.366 112.33 840.661 112.33C810.05 112.33 768.487 127.495 780.563 176.921C784.213 192.086 800.502 201.353 814.543 200.511ZM1036.29 183.942C1037.42 194.052 1039.95 197.983 1044.16 200.511C1044.16 201.072 1044.16 202.477 1044.16 202.477H1009.33C1009.33 202.477 1009.33 201.072 1009.33 200.511C1013.83 197.983 1014.95 193.209 1014.11 183.942C1013.27 174.674 1009.05 127.214 1007.65 112.611C1005.68 91.5483 995.293 67.6777 971.142 72.4518C939.689 78.6301 933.791 137.324 933.791 160.914V183.942C933.791 193.771 935.757 197.983 940.25 200.511C940.25 201.072 940.25 202.477 940.25 202.477H905.427C905.427 202.477 905.427 201.072 905.427 200.511C909.64 197.983 911.605 193.771 911.605 183.942V89.0208C911.605 79.1917 910.763 76.3834 905.427 75.5409C905.427 74.9793 905.427 73.5751 905.427 73.5751L931.825 67.3968H933.791V137.043C937.442 105.59 946.99 67.3968 983.498 67.3968C1006.53 67.3968 1026.18 83.1234 1029.55 116.823C1032.36 144.064 1035.17 173.551 1036.29 183.942ZM1197.76 200.511C1197.76 201.072 1197.76 202.477 1197.76 202.477H1169.39V127.214C1164.06 159.79 1149.73 204.162 1110.42 204.162C1087.67 204.162 1059.59 184.503 1058.46 148.557C1056.78 79.1917 1121.37 67.3968 1152.54 67.3968C1159 67.3968 1164.62 68.5202 1169.39 69.9243V21.6214C1169.39 11.7923 1168.55 8.98398 1162.93 8.14148C1162.93 7.57983 1162.93 5.89483 1162.93 5.89483L1189.61 -0.00261035H1191.58V183.942C1191.58 193.771 1193.54 197.983 1197.76 200.511ZM1123.06 199.107C1154.51 192.928 1169.39 134.235 1169.39 110.645V71.3285C1167.99 71.0476 1161.53 68.801 1152.54 68.801C1125.3 69.3626 1076.44 81.1576 1080.37 152.769C1081.77 177.202 1098.9 203.6 1123.06 199.107ZM1245.89 183.942C1245.89 193.771 1247.85 197.983 1252.06 200.511C1252.06 201.072 1252.06 202.477 1252.06 202.477H1217.52C1217.52 202.477 1217.52 201.072 1217.52 200.511C1221.74 197.983 1223.7 193.771 1223.7 183.942V21.6214C1223.7 11.7923 1222.86 8.98398 1217.52 8.14148C1217.52 7.57983 1217.52 5.89483 1217.52 5.89483L1243.92 -0.00261035H1245.89V183.942ZM1380.22 111.768C1396.23 115.981 1410.84 132.269 1408.59 157.824C1406.9 177.763 1389.21 204.162 1349.33 204.162C1310.58 204.162 1273.23 185.065 1272.1 138.728C1270.7 90.1442 1314.79 69.0818 1345.68 67.3968C1369.55 66.2735 1402.41 77.7876 1406.34 111.768C1403.81 111.768 1386.4 111.768 1386.4 111.768H1380.22ZM1333.05 70.7668C1313.95 74.4176 1301.59 90.425 1296.54 109.521H1386.12C1382.47 85.0892 1360.57 65.431 1333.05 70.7668ZM1406.06 158.386C1409.43 129.18 1390.05 111.768 1368.71 111.768H1295.98C1292.32 126.652 1293.17 143.221 1297.94 156.701C1308.33 186.188 1329.39 199.107 1358.04 197.983C1382.19 196.86 1403.25 180.291 1406.06 158.386Z" fill="white"/>
</svg>
