<svg width="483" height="108" viewBox="0 0 483 108" fill="none" xmlns="http://www.w3.org/2000/svg">
<path d="M176.948 27.6047L179.121 35.8872L178.714 36.0908C175.659 32.6285 171.382 28.1478 163.846 28.1478H162.352V70.6463C162.352 73.0224 162.895 74.0407 163.914 74.6517C163.914 74.7875 163.914 75.127 163.914 75.127H155.496C155.496 75.127 155.496 74.7875 155.496 74.6517C156.514 74.0407 157.057 73.0224 157.057 70.6463V28.1478H155.563C148.028 28.1478 143.751 32.6285 140.696 36.0908L140.288 35.8872L142.461 27.6047H176.948ZM214.851 70.6463C215.123 73.0903 215.734 74.0407 216.752 74.6517C216.752 74.7875 216.752 75.127 216.752 75.127H208.402C208.402 75.127 208.402 74.7875 208.402 74.6517C209.42 74.0407 209.759 72.8866 209.556 70.6463C209.284 68.406 208.334 56.9327 207.994 53.4025C207.451 48.3108 204.939 42.5403 199.101 43.6944C191.497 45.188 190.14 59.3767 190.14 65.0794V70.6463C190.14 73.0224 190.615 74.0407 191.633 74.6517C191.633 74.7875 191.633 75.127 191.633 75.127H183.215C183.215 75.127 183.215 74.7875 183.215 74.6517C184.301 74.0407 184.776 73.0224 184.776 70.6463V31.4065C184.776 29.0304 184.573 28.3515 183.215 28.1478C183.215 28.0121 183.215 27.6047 183.215 27.6047L189.596 26.1791H190.14V59.3088C190.954 51.7053 193.33 42.4724 202.156 42.4724C207.655 42.4724 212.407 46.2742 213.222 54.4208C213.969 61.0061 214.58 68.1344 214.851 70.6463ZM246.348 53.1988C250.218 54.2172 253.748 58.1547 253.205 64.3326C252.797 69.1527 248.52 75.5343 238.88 75.5343C229.511 75.5343 220.482 70.9178 220.211 59.7162C219.871 47.9714 230.53 42.8797 237.998 42.4724C243.768 42.2008 251.711 44.9843 252.662 53.1988C252.051 53.1988 247.841 53.1988 247.841 53.1988H246.348ZM234.943 43.2871C230.326 44.1696 227.339 48.0393 226.117 52.6557H247.774C246.891 46.7494 241.596 41.9972 234.943 43.2871ZM252.594 64.4684C253.408 57.408 248.724 53.1988 243.564 53.1988H225.981C225.099 56.797 225.302 60.8024 226.456 64.0611C228.968 71.1894 234.06 74.3123 240.985 74.0407C246.823 73.7692 251.915 69.7637 252.594 64.4684ZM280.063 49.8044C288.074 50.5512 296.695 54.0814 296.695 62.3638C296.695 71.9362 285.426 75.127 276.668 75.127H257.999C257.999 75.127 257.999 74.7875 257.999 74.6517C259.017 74.0407 259.492 73.0224 259.492 70.6463V32.1533C259.492 29.7772 259.017 28.7588 257.999 28.1478C257.999 28.0121 257.999 27.6047 257.999 27.6047H273.749C282.507 27.6047 293.776 29.3698 293.776 38.9422C293.776 46.2063 287.123 48.9218 280.063 49.8044ZM264.856 28.1478V49.6007H273.749C284.883 49.6007 288.413 44.9164 288.413 38.9422C288.413 32.9001 284.883 28.1478 273.749 28.1478H264.856ZM276.668 74.6517C287.802 74.6517 291.4 68.406 291.4 62.3638C291.4 56.3896 287.802 50.1438 276.668 50.1438H264.856V74.6517H276.668ZM318.124 42.4724C321.79 42.4724 323.895 43.7623 326.203 46.4778L322.062 52.3163L321.587 52.0447C321.451 48.1751 319.55 43.1513 315.884 43.6944C309.231 44.7127 308.348 62.2281 308.348 67.9986V70.6463C308.348 73.0224 308.824 74.0407 309.842 74.6517C309.842 74.7875 309.842 75.127 309.842 75.127H301.424C301.424 75.127 301.424 74.7875 301.424 74.6517C302.51 74.0407 302.985 73.0224 302.985 70.6463V47.6998C302.985 45.3237 302.782 44.6448 301.424 44.4412C301.424 44.3054 301.424 43.966 301.424 43.966L307.805 42.4724H308.348V60.6666C309.027 52.4521 310.928 42.4724 318.124 42.4724ZM354.442 74.6517C354.442 74.7875 354.442 75.127 354.442 75.127H347.586V65.6225C345.82 71.5967 342.087 75.5343 335.569 75.5343C330.002 75.5343 324.571 72.8866 323.689 67.9986C322.535 61.074 326.676 57.0006 331.903 54.8282C330.138 50.8906 332.243 42.4724 341.34 42.4724C346.975 42.4724 352.949 45.4595 352.949 53.8098V70.6463C352.949 73.0224 353.424 74.0407 354.442 74.6517ZM340.729 43.1513C334.619 43.1513 330.545 49.0576 332.582 54.5566C336.248 53.1988 340.321 52.7236 343.512 52.7236C345.074 52.7236 346.431 52.9952 347.586 53.3346V52.8594C347.586 47.6998 345.549 43.1513 340.729 43.1513ZM337.199 74.6517C343.105 74.3123 346.228 69.2885 347.586 64.4005V53.9456C347.246 53.8098 345.617 53.3346 343.512 53.3346C336.112 53.3346 326.065 57.0006 328.984 68.9491C329.867 72.6151 333.804 74.8554 337.199 74.6517ZM390.805 70.6463C391.077 73.0903 391.688 74.0407 392.706 74.6517C392.706 74.7875 392.706 75.127 392.706 75.127H384.288C384.288 75.127 384.288 74.7875 384.288 74.6517C385.374 74.0407 385.646 72.8866 385.442 70.6463C385.238 68.406 384.22 56.9327 383.881 53.4025C383.405 48.3108 380.894 42.5403 375.055 43.6944C367.452 45.188 366.026 59.3767 366.026 65.0794V70.6463C366.026 73.0224 366.501 74.0407 367.587 74.6517C367.587 74.7875 367.587 75.127 367.587 75.127H359.169C359.169 75.127 359.169 74.7875 359.169 74.6517C360.187 74.0407 360.663 73.0224 360.663 70.6463V47.6998C360.663 45.3237 360.459 44.6448 359.169 44.4412C359.169 44.3054 359.169 43.966 359.169 43.966L365.551 42.4724H366.026V59.3088C366.908 51.7053 369.217 42.4724 378.042 42.4724C383.609 42.4724 388.361 46.2742 389.176 54.4208C389.855 61.0061 390.534 68.1344 390.805 70.6463ZM429.838 74.6517C429.838 74.7875 429.838 75.127 429.838 75.127H422.981V56.9327C421.691 64.8078 418.229 75.5343 408.724 75.5343C403.225 75.5343 396.436 70.7821 396.165 62.0923C395.757 45.3237 411.372 42.4724 418.908 42.4724C420.469 42.4724 421.827 42.744 422.981 43.0834V31.4065C422.981 29.0304 422.777 28.3515 421.419 28.1478C421.419 28.0121 421.419 27.6047 421.419 27.6047L427.869 26.1791H428.344V70.6463C428.344 73.0224 428.819 74.0407 429.838 74.6517ZM411.779 74.3123C419.383 72.8187 422.981 58.63 422.981 52.9273V43.4228C422.641 43.355 421.08 42.8118 418.908 42.8118C412.322 42.9476 400.51 45.799 401.46 63.1106C401.8 69.017 405.941 75.3985 411.779 74.3123ZM441.473 70.6463C441.473 73.0224 441.948 74.0407 442.966 74.6517C442.966 74.7875 442.966 75.127 442.966 75.127H434.616C434.616 75.127 434.616 74.7875 434.616 74.6517C435.634 74.0407 436.109 73.0224 436.109 70.6463V31.4065C436.109 29.0304 435.906 28.3515 434.616 28.1478C434.616 28.0121 434.616 27.6047 434.616 27.6047L440.997 26.1791H441.473V70.6463ZM473.948 53.1988C477.818 54.2172 481.348 58.1547 480.805 64.3326C480.397 69.1527 476.12 75.5343 466.48 75.5343C457.112 75.5343 448.082 70.9178 447.811 59.7162C447.471 47.9714 458.13 42.8797 465.598 42.4724C471.368 42.2008 479.311 44.9843 480.262 53.1988C479.651 53.1988 475.442 53.1988 475.442 53.1988H473.948ZM462.543 43.2871C457.926 44.1696 454.939 48.0393 453.717 52.6557H475.374C474.491 46.7494 469.196 41.9972 462.543 43.2871ZM480.194 64.4684C481.008 57.408 476.324 53.1988 471.165 53.1988H453.581C452.699 56.797 452.902 60.8024 454.057 64.0611C456.568 71.1894 461.66 74.3123 468.585 74.0407C474.423 73.7692 479.515 69.7637 480.194 64.4684Z" fill="white"/>
<path d="M0 3.12695H85.0618V89.4397" stroke="#F9442D" stroke-width="6.25455"/>
<path d="M67.9307 104.127H122.931V62.127" stroke="#F9442D" stroke-width="6.25455"/>
</svg>
